  0
SECTION
  2
BLOCKS
  0
ENDSEC
  0
SECTION
  2
ENTITIES
  0
LINE
  8
0
 10
52
 20
-8.81117
 11
52
 21
8.81117
  0
LINE
  8
0
 10
52
 20
8.81117
 11
8.81117
 21
52
  0
LINE
  8
0
 10
8.81117
 20
52
 11
-8.81117
 21
52
  0
LINE
  8
0
 10
-8.81117
 20
52
 11
-52
 21
8.81117
  0
LINE
  8
0
 10
-52
 20
8.81117
 11
-52
 21
-8.81117
  0
LINE
  8
0
 10
-52
 20
-8.81117
 11
-8.81117
 21
-52
  0
LINE
  8
0
 10
-8.81117
 20
-52
 11
8.81117
 21
-52
  0
LINE
  8
0
 10
8.81117
 20
-52
 11
52
 21
-8.81117
  0
LINE
  8
0
 10
-0.243347
 20
41.3074
 11
-0.710358
 21
41.4445
  0
LINE
  8
0
 10
-0.710358
 20
41.4445
 11
-1.1198
 21
41.7077
  0
LINE
  8
0
 10
-1.1198
 20
41.7077
 11
-1.43854
 21
42.0755
  0
LINE
  8
0
 10
-1.43854
 20
42.0755
 11
-1.64073
 21
42.5182
  0
LINE
  8
0
 10
-1.64073
 20
42.5182
 11
-1.70999
 21
43
  0
LINE
  8
0
 10
-1.70999
 20
43
 11
-1.64073
 21
43.4818
  0
LINE
  8
0
 10
-1.64073
 20
43.4818
 11
-1.43854
 21
43.9245
  0
LINE
  8
0
 10
-1.43854
 20
43.9245
 11
-1.1198
 21
44.2923
  0
LINE
  8
0
 10
-1.1198
 20
44.2923
 11
-0.710358
 21
44.5555
  0
LINE
  8
0
 10
-0.710358
 20
44.5555
 11
-0.243347
 21
44.6926
  0
LINE
  8
0
 10
-0.243347
 20
44.6926
 11
0.243347
 21
44.6926
  0
LINE
  8
0
 10
0.243347
 20
44.6926
 11
0.710358
 21
44.5555
  0
LINE
  8
0
 10
0.710358
 20
44.5555
 11
1.1198
 21
44.2923
  0
LINE
  8
0
 10
1.1198
 20
44.2923
 11
1.43854
 21
43.9245
  0
LINE
  8
0
 10
1.43854
 20
43.9245
 11
1.64073
 21
43.4818
  0
LINE
  8
0
 10
1.64073
 20
43.4818
 11
1.70999
 21
43
  0
LINE
  8
0
 10
1.70999
 20
43
 11
1.64073
 21
42.5182
  0
LINE
  8
0
 10
1.64073
 20
42.5182
 11
1.43854
 21
42.0755
  0
LINE
  8
0
 10
1.43854
 20
42.0755
 11
1.1198
 21
41.7077
  0
LINE
  8
0
 10
1.1198
 20
41.7077
 11
0.710358
 21
41.4445
  0
LINE
  8
0
 10
0.710358
 20
41.4445
 11
0.243347
 21
41.3074
  0
LINE
  8
0
 10
0.243347
 20
41.3074
 11
-0.243347
 21
41.3074
  0
LINE
  8
0
 10
-0.243347
 20
31.3074
 11
-0.710358
 21
31.4445
  0
LINE
  8
0
 10
-0.710358
 20
31.4445
 11
-1.1198
 21
31.7077
  0
LINE
  8
0
 10
-1.1198
 20
31.7077
 11
-1.43854
 21
32.0755
  0
LINE
  8
0
 10
-1.43854
 20
32.0755
 11
-1.64073
 21
32.5182
  0
LINE
  8
0
 10
-1.64073
 20
32.5182
 11
-1.70999
 21
33
  0
LINE
  8
0
 10
-1.70999
 20
33
 11
-1.64073
 21
33.4818
  0
LINE
  8
0
 10
-1.64073
 20
33.4818
 11
-1.43854
 21
33.9245
  0
LINE
  8
0
 10
-1.43854
 20
33.9245
 11
-1.1198
 21
34.2923
  0
LINE
  8
0
 10
-1.1198
 20
34.2923
 11
-0.710358
 21
34.5555
  0
LINE
  8
0
 10
-0.710358
 20
34.5555
 11
-0.243347
 21
34.6926
  0
LINE
  8
0
 10
-0.243347
 20
34.6926
 11
0.243347
 21
34.6926
  0
LINE
  8
0
 10
0.243347
 20
34.6926
 11
0.710358
 21
34.5555
  0
LINE
  8
0
 10
0.710358
 20
34.5555
 11
1.1198
 21
34.2923
  0
LINE
  8
0
 10
1.1198
 20
34.2923
 11
1.43854
 21
33.9245
  0
LINE
  8
0
 10
1.43854
 20
33.9245
 11
1.64073
 21
33.4818
  0
LINE
  8
0
 10
1.64073
 20
33.4818
 11
1.70999
 21
33
  0
LINE
  8
0
 10
1.70999
 20
33
 11
1.64073
 21
32.5182
  0
LINE
  8
0
 10
1.64073
 20
32.5182
 11
1.43854
 21
32.0755
  0
LINE
  8
0
 10
1.43854
 20
32.0755
 11
1.1198
 21
31.7077
  0
LINE
  8
0
 10
1.1198
 20
31.7077
 11
0.710358
 21
31.4445
  0
LINE
  8
0
 10
0.710358
 20
31.4445
 11
0.243347
 21
31.3074
  0
LINE
  8
0
 10
0.243347
 20
31.3074
 11
-0.243347
 21
31.3074
  0
LINE
  8
0
 10
-0.243347
 20
19.8074
 11
-0.710358
 21
19.9445
  0
LINE
  8
0
 10
-0.710358
 20
19.9445
 11
-1.1198
 21
20.2077
  0
LINE
  8
0
 10
-1.1198
 20
20.2077
 11
-1.43854
 21
20.5755
  0
LINE
  8
0
 10
-1.43854
 20
20.5755
 11
-1.64073
 21
21.0182
  0
LINE
  8
0
 10
-1.64073
 20
21.0182
 11
-1.70999
 21
21.5
  0
LINE
  8
0
 10
-1.70999
 20
21.5
 11
-1.64073
 21
21.9818
  0
LINE
  8
0
 10
-1.64073
 20
21.9818
 11
-1.43854
 21
22.4245
  0
LINE
  8
0
 10
-1.43854
 20
22.4245
 11
-1.1198
 21
22.7923
  0
LINE
  8
0
 10
-1.1198
 20
22.7923
 11
-0.710358
 21
23.0555
  0
LINE
  8
0
 10
-0.710358
 20
23.0555
 11
-0.243347
 21
23.1926
  0
LINE
  8
0
 10
-0.243347
 20
23.1926
 11
0.243347
 21
23.1926
  0
LINE
  8
0
 10
0.243347
 20
23.1926
 11
0.710358
 21
23.0555
  0
LINE
  8
0
 10
0.710358
 20
23.0555
 11
1.1198
 21
22.7923
  0
LINE
  8
0
 10
1.1198
 20
22.7923
 11
1.43854
 21
22.4245
  0
LINE
  8
0
 10
1.43854
 20
22.4245
 11
1.64073
 21
21.9818
  0
LINE
  8
0
 10
1.64073
 20
21.9818
 11
1.70999
 21
21.5
  0
LINE
  8
0
 10
1.70999
 20
21.5
 11
1.64073
 21
21.0182
  0
LINE
  8
0
 10
1.64073
 20
21.0182
 11
1.43854
 21
20.5755
  0
LINE
  8
0
 10
1.43854
 20
20.5755
 11
1.1198
 21
20.2077
  0
LINE
  8
0
 10
1.1198
 20
20.2077
 11
0.710358
 21
19.9445
  0
LINE
  8
0
 10
0.710358
 20
19.9445
 11
0.243347
 21
19.8074
  0
LINE
  8
0
 10
0.243347
 20
19.8074
 11
-0.243347
 21
19.8074
  0
LINE
  8
0
 10
-21.9818
 20
-1.64073
 11
-22.4245
 21
-1.43854
  0
LINE
  8
0
 10
-22.4245
 20
-1.43854
 11
-22.7923
 21
-1.1198
  0
LINE
  8
0
 10
-22.7923
 20
-1.1198
 11
-23.0555
 21
-0.710358
  0
LINE
  8
0
 10
-23.0555
 20
-0.710358
 11
-23.1926
 21
-0.243347
  0
LINE
  8
0
 10
-23.1926
 20
-0.243347
 11
-23.1926
 21
0.243347
  0
LINE
  8
0
 10
-23.1926
 20
0.243347
 11
-23.0555
 21
0.710358
  0
LINE
  8
0
 10
-23.0555
 20
0.710358
 11
-22.7923
 21
1.1198
  0
LINE
  8
0
 10
-22.7923
 20
1.1198
 11
-22.4245
 21
1.43854
  0
LINE
  8
0
 10
-22.4245
 20
1.43854
 11
-21.9818
 21
1.64073
  0
LINE
  8
0
 10
-21.9818
 20
1.64073
 11
-21.5
 21
1.70999
  0
LINE
  8
0
 10
-21.5
 20
1.70999
 11
-21.0182
 21
1.64073
  0
LINE
  8
0
 10
-21.0182
 20
1.64073
 11
-20.5755
 21
1.43854
  0
LINE
  8
0
 10
-20.5755
 20
1.43854
 11
-20.2077
 21
1.1198
  0
LINE
  8
0
 10
-20.2077
 20
1.1198
 11
-19.9445
 21
0.710358
  0
LINE
  8
0
 10
-19.9445
 20
0.710358
 11
-19.8074
 21
0.243347
  0
LINE
  8
0
 10
-19.8074
 20
0.243347
 11
-19.8074
 21
-0.243347
  0
LINE
  8
0
 10
-19.8074
 20
-0.243347
 11
-19.9445
 21
-0.710358
  0
LINE
  8
0
 10
-19.9445
 20
-0.710358
 11
-20.2077
 21
-1.1198
  0
LINE
  8
0
 10
-20.2077
 20
-1.1198
 11
-20.5755
 21
-1.43854
  0
LINE
  8
0
 10
-20.5755
 20
-1.43854
 11
-21.0182
 21
-1.64073
  0
LINE
  8
0
 10
-21.0182
 20
-1.64073
 11
-21.5
 21
-1.70999
  0
LINE
  8
0
 10
-21.5
 20
-1.70999
 11
-21.9818
 21
-1.64073
  0
LINE
  8
0
 10
32.5182
 20
-1.64073
 11
32.0755
 21
-1.43854
  0
LINE
  8
0
 10
32.0755
 20
-1.43854
 11
31.7077
 21
-1.1198
  0
LINE
  8
0
 10
31.7077
 20
-1.1198
 11
31.4445
 21
-0.710358
  0
LINE
  8
0
 10
31.4445
 20
-0.710358
 11
31.3074
 21
-0.243347
  0
LINE
  8
0
 10
31.3074
 20
-0.243347
 11
31.3074
 21
0.243347
  0
LINE
  8
0
 10
31.3074
 20
0.243347
 11
31.4445
 21
0.710358
  0
LINE
  8
0
 10
31.4445
 20
0.710358
 11
31.7077
 21
1.1198
  0
LINE
  8
0
 10
31.7077
 20
1.1198
 11
32.0755
 21
1.43854
  0
LINE
  8
0
 10
32.0755
 20
1.43854
 11
32.5182
 21
1.64073
  0
LINE
  8
0
 10
32.5182
 20
1.64073
 11
33
 21
1.70999
  0
LINE
  8
0
 10
33
 20
1.70999
 11
33.4818
 21
1.64073
  0
LINE
  8
0
 10
33.4818
 20
1.64073
 11
33.9245
 21
1.43854
  0
LINE
  8
0
 10
33.9245
 20
1.43854
 11
34.2923
 21
1.1198
  0
LINE
  8
0
 10
34.2923
 20
1.1198
 11
34.5555
 21
0.710358
  0
LINE
  8
0
 10
34.5555
 20
0.710358
 11
34.6926
 21
0.243347
  0
LINE
  8
0
 10
34.6926
 20
0.243347
 11
34.6926
 21
-0.243347
  0
LINE
  8
0
 10
34.6926
 20
-0.243347
 11
34.5555
 21
-0.710358
  0
LINE
  8
0
 10
34.5555
 20
-0.710358
 11
34.2923
 21
-1.1198
  0
LINE
  8
0
 10
34.2923
 20
-1.1198
 11
33.9245
 21
-1.43854
  0
LINE
  8
0
 10
33.9245
 20
-1.43854
 11
33.4818
 21
-1.64073
  0
LINE
  8
0
 10
33.4818
 20
-1.64073
 11
33
 21
-1.70999
  0
LINE
  8
0
 10
33
 20
-1.70999
 11
32.5182
 21
-1.64073
  0
LINE
  8
0
 10
21.0182
 20
-1.64073
 11
20.5755
 21
-1.43854
  0
LINE
  8
0
 10
20.5755
 20
-1.43854
 11
20.2077
 21
-1.1198
  0
LINE
  8
0
 10
20.2077
 20
-1.1198
 11
19.9445
 21
-0.710358
  0
LINE
  8
0
 10
19.9445
 20
-0.710358
 11
19.8074
 21
-0.243347
  0
LINE
  8
0
 10
19.8074
 20
-0.243347
 11
19.8074
 21
0.243347
  0
LINE
  8
0
 10
19.8074
 20
0.243347
 11
19.9445
 21
0.710358
  0
LINE
  8
0
 10
19.9445
 20
0.710358
 11
20.2077
 21
1.1198
  0
LINE
  8
0
 10
20.2077
 20
1.1198
 11
20.5755
 21
1.43854
  0
LINE
  8
0
 10
20.5755
 20
1.43854
 11
21.0182
 21
1.64073
  0
LINE
  8
0
 10
21.0182
 20
1.64073
 11
21.5
 21
1.70999
  0
LINE
  8
0
 10
21.5
 20
1.70999
 11
21.9818
 21
1.64073
  0
LINE
  8
0
 10
21.9818
 20
1.64073
 11
22.4245
 21
1.43854
  0
LINE
  8
0
 10
22.4245
 20
1.43854
 11
22.7923
 21
1.1198
  0
LINE
  8
0
 10
22.7923
 20
1.1198
 11
23.0555
 21
0.710358
  0
LINE
  8
0
 10
23.0555
 20
0.710358
 11
23.1926
 21
0.243347
  0
LINE
  8
0
 10
23.1926
 20
0.243347
 11
23.1926
 21
-0.243347
  0
LINE
  8
0
 10
23.1926
 20
-0.243347
 11
23.0555
 21
-0.710358
  0
LINE
  8
0
 10
23.0555
 20
-0.710358
 11
22.7923
 21
-1.1198
  0
LINE
  8
0
 10
22.7923
 20
-1.1198
 11
22.4245
 21
-1.43854
  0
LINE
  8
0
 10
22.4245
 20
-1.43854
 11
21.9818
 21
-1.64073
  0
LINE
  8
0
 10
21.9818
 20
-1.64073
 11
21.5
 21
-1.70999
  0
LINE
  8
0
 10
21.5
 20
-1.70999
 11
21.0182
 21
-1.64073
  0
LINE
  8
0
 10
-43.4818
 20
-1.64073
 11
-43.9245
 21
-1.43854
  0
LINE
  8
0
 10
-43.9245
 20
-1.43854
 11
-44.2923
 21
-1.1198
  0
LINE
  8
0
 10
-44.2923
 20
-1.1198
 11
-44.5555
 21
-0.710358
  0
LINE
  8
0
 10
-44.5555
 20
-0.710358
 11
-44.6926
 21
-0.243347
  0
LINE
  8
0
 10
-44.6926
 20
-0.243347
 11
-44.6926
 21
0.243347
  0
LINE
  8
0
 10
-44.6926
 20
0.243347
 11
-44.5555
 21
0.710358
  0
LINE
  8
0
 10
-44.5555
 20
0.710358
 11
-44.2923
 21
1.1198
  0
LINE
  8
0
 10
-44.2923
 20
1.1198
 11
-43.9245
 21
1.43854
  0
LINE
  8
0
 10
-43.9245
 20
1.43854
 11
-43.4818
 21
1.64073
  0
LINE
  8
0
 10
-43.4818
 20
1.64073
 11
-43
 21
1.70999
  0
LINE
  8
0
 10
-43
 20
1.70999
 11
-42.5182
 21
1.64073
  0
LINE
  8
0
 10
-42.5182
 20
1.64073
 11
-42.0755
 21
1.43854
  0
LINE
  8
0
 10
-42.0755
 20
1.43854
 11
-41.7077
 21
1.1198
  0
LINE
  8
0
 10
-41.7077
 20
1.1198
 11
-41.4445
 21
0.710358
  0
LINE
  8
0
 10
-41.4445
 20
0.710358
 11
-41.3074
 21
0.243347
  0
LINE
  8
0
 10
-41.3074
 20
0.243347
 11
-41.3074
 21
-0.243347
  0
LINE
  8
0
 10
-41.3074
 20
-0.243347
 11
-41.4445
 21
-0.710358
  0
LINE
  8
0
 10
-41.4445
 20
-0.710358
 11
-41.7077
 21
-1.1198
  0
LINE
  8
0
 10
-41.7077
 20
-1.1198
 11
-42.0755
 21
-1.43854
  0
LINE
  8
0
 10
-42.0755
 20
-1.43854
 11
-42.5182
 21
-1.64073
  0
LINE
  8
0
 10
-42.5182
 20
-1.64073
 11
-43
 21
-1.70999
  0
LINE
  8
0
 10
-43
 20
-1.70999
 11
-43.4818
 21
-1.64073
  0
LINE
  8
0
 10
42.5182
 20
-1.64073
 11
42.0755
 21
-1.43854
  0
LINE
  8
0
 10
42.0755
 20
-1.43854
 11
41.7077
 21
-1.1198
  0
LINE
  8
0
 10
41.7077
 20
-1.1198
 11
41.4445
 21
-0.710358
  0
LINE
  8
0
 10
41.4445
 20
-0.710358
 11
41.3074
 21
-0.243347
  0
LINE
  8
0
 10
41.3074
 20
-0.243347
 11
41.3074
 21
0.243347
  0
LINE
  8
0
 10
41.3074
 20
0.243347
 11
41.4445
 21
0.710358
  0
LINE
  8
0
 10
41.4445
 20
0.710358
 11
41.7077
 21
1.1198
  0
LINE
  8
0
 10
41.7077
 20
1.1198
 11
42.0755
 21
1.43854
  0
LINE
  8
0
 10
42.0755
 20
1.43854
 11
42.5182
 21
1.64073
  0
LINE
  8
0
 10
42.5182
 20
1.64073
 11
43
 21
1.70999
  0
LINE
  8
0
 10
43
 20
1.70999
 11
43.4818
 21
1.64073
  0
LINE
  8
0
 10
43.4818
 20
1.64073
 11
43.9245
 21
1.43854
  0
LINE
  8
0
 10
43.9245
 20
1.43854
 11
44.2923
 21
1.1198
  0
LINE
  8
0
 10
44.2923
 20
1.1198
 11
44.5555
 21
0.710358
  0
LINE
  8
0
 10
44.5555
 20
0.710358
 11
44.6926
 21
0.243347
  0
LINE
  8
0
 10
44.6926
 20
0.243347
 11
44.6926
 21
-0.243347
  0
LINE
  8
0
 10
44.6926
 20
-0.243347
 11
44.5555
 21
-0.710358
  0
LINE
  8
0
 10
44.5555
 20
-0.710358
 11
44.2923
 21
-1.1198
  0
LINE
  8
0
 10
44.2923
 20
-1.1198
 11
43.9245
 21
-1.43854
  0
LINE
  8
0
 10
43.9245
 20
-1.43854
 11
43.4818
 21
-1.64073
  0
LINE
  8
0
 10
43.4818
 20
-1.64073
 11
43
 21
-1.70999
  0
LINE
  8
0
 10
43
 20
-1.70999
 11
42.5182
 21
-1.64073
  0
LINE
  8
0
 10
-33.4818
 20
-1.64073
 11
-33.9245
 21
-1.43854
  0
LINE
  8
0
 10
-33.9245
 20
-1.43854
 11
-34.2923
 21
-1.1198
  0
LINE
  8
0
 10
-34.2923
 20
-1.1198
 11
-34.5555
 21
-0.710358
  0
LINE
  8
0
 10
-34.5555
 20
-0.710358
 11
-34.6926
 21
-0.243347
  0
LINE
  8
0
 10
-34.6926
 20
-0.243347
 11
-34.6926
 21
0.243347
  0
LINE
  8
0
 10
-34.6926
 20
0.243347
 11
-34.5555
 21
0.710358
  0
LINE
  8
0
 10
-34.5555
 20
0.710358
 11
-34.2923
 21
1.1198
  0
LINE
  8
0
 10
-34.2923
 20
1.1198
 11
-33.9245
 21
1.43854
  0
LINE
  8
0
 10
-33.9245
 20
1.43854
 11
-33.4818
 21
1.64073
  0
LINE
  8
0
 10
-33.4818
 20
1.64073
 11
-33
 21
1.70999
  0
LINE
  8
0
 10
-33
 20
1.70999
 11
-32.5182
 21
1.64073
  0
LINE
  8
0
 10
-32.5182
 20
1.64073
 11
-32.0755
 21
1.43854
  0
LINE
  8
0
 10
-32.0755
 20
1.43854
 11
-31.7077
 21
1.1198
  0
LINE
  8
0
 10
-31.7077
 20
1.1198
 11
-31.4445
 21
0.710358
  0
LINE
  8
0
 10
-31.4445
 20
0.710358
 11
-31.3074
 21
0.243347
  0
LINE
  8
0
 10
-31.3074
 20
0.243347
 11
-31.3074
 21
-0.243347
  0
LINE
  8
0
 10
-31.3074
 20
-0.243347
 11
-31.4445
 21
-0.710358
  0
LINE
  8
0
 10
-31.4445
 20
-0.710358
 11
-31.7077
 21
-1.1198
  0
LINE
  8
0
 10
-31.7077
 20
-1.1198
 11
-32.0755
 21
-1.43854
  0
LINE
  8
0
 10
-32.0755
 20
-1.43854
 11
-32.5182
 21
-1.64073
  0
LINE
  8
0
 10
-32.5182
 20
-1.64073
 11
-33
 21
-1.70999
  0
LINE
  8
0
 10
-33
 20
-1.70999
 11
-33.4818
 21
-1.64073
  0
LINE
  8
0
 10
-0.243347
 20
-23.1926
 11
-0.710358
 21
-23.0555
  0
LINE
  8
0
 10
-0.710358
 20
-23.0555
 11
-1.1198
 21
-22.7923
  0
LINE
  8
0
 10
-1.1198
 20
-22.7923
 11
-1.43854
 21
-22.4245
  0
LINE
  8
0
 10
-1.43854
 20
-22.4245
 11
-1.64073
 21
-21.9818
  0
LINE
  8
0
 10
-1.64073
 20
-21.9818
 11
-1.70999
 21
-21.5
  0
LINE
  8
0
 10
-1.70999
 20
-21.5
 11
-1.64073
 21
-21.0182
  0
LINE
  8
0
 10
-1.64073
 20
-21.0182
 11
-1.43854
 21
-20.5755
  0
LINE
  8
0
 10
-1.43854
 20
-20.5755
 11
-1.1198
 21
-20.2077
  0
LINE
  8
0
 10
-1.1198
 20
-20.2077
 11
-0.710358
 21
-19.9445
  0
LINE
  8
0
 10
-0.710358
 20
-19.9445
 11
-0.243347
 21
-19.8074
  0
LINE
  8
0
 10
-0.243347
 20
-19.8074
 11
0.243347
 21
-19.8074
  0
LINE
  8
0
 10
0.243347
 20
-19.8074
 11
0.710358
 21
-19.9445
  0
LINE
  8
0
 10
0.710358
 20
-19.9445
 11
1.1198
 21
-20.2077
  0
LINE
  8
0
 10
1.1198
 20
-20.2077
 11
1.43854
 21
-20.5755
  0
LINE
  8
0
 10
1.43854
 20
-20.5755
 11
1.64073
 21
-21.0182
  0
LINE
  8
0
 10
1.64073
 20
-21.0182
 11
1.70999
 21
-21.5
  0
LINE
  8
0
 10
1.70999
 20
-21.5
 11
1.64073
 21
-21.9818
  0
LINE
  8
0
 10
1.64073
 20
-21.9818
 11
1.43854
 21
-22.4245
  0
LINE
  8
0
 10
1.43854
 20
-22.4245
 11
1.1198
 21
-22.7923
  0
LINE
  8
0
 10
1.1198
 20
-22.7923
 11
0.710358
 21
-23.0555
  0
LINE
  8
0
 10
0.710358
 20
-23.0555
 11
0.243347
 21
-23.1926
  0
LINE
  8
0
 10
0.243347
 20
-23.1926
 11
-0.243347
 21
-23.1926
  0
LINE
  8
0
 10
-0.243347
 20
-34.6926
 11
-0.710358
 21
-34.5555
  0
LINE
  8
0
 10
-0.710358
 20
-34.5555
 11
-1.1198
 21
-34.2923
  0
LINE
  8
0
 10
-1.1198
 20
-34.2923
 11
-1.43854
 21
-33.9245
  0
LINE
  8
0
 10
-1.43854
 20
-33.9245
 11
-1.64073
 21
-33.4818
  0
LINE
  8
0
 10
-1.64073
 20
-33.4818
 11
-1.70999
 21
-33
  0
LINE
  8
0
 10
-1.70999
 20
-33
 11
-1.64073
 21
-32.5182
  0
LINE
  8
0
 10
-1.64073
 20
-32.5182
 11
-1.43854
 21
-32.0755
  0
LINE
  8
0
 10
-1.43854
 20
-32.0755
 11
-1.1198
 21
-31.7077
  0
LINE
  8
0
 10
-1.1198
 20
-31.7077
 11
-0.710358
 21
-31.4445
  0
LINE
  8
0
 10
-0.710358
 20
-31.4445
 11
-0.243347
 21
-31.3074
  0
LINE
  8
0
 10
-0.243347
 20
-31.3074
 11
0.243347
 21
-31.3074
  0
LINE
  8
0
 10
0.243347
 20
-31.3074
 11
0.710358
 21
-31.4445
  0
LINE
  8
0
 10
0.710358
 20
-31.4445
 11
1.1198
 21
-31.7077
  0
LINE
  8
0
 10
1.1198
 20
-31.7077
 11
1.43854
 21
-32.0755
  0
LINE
  8
0
 10
1.43854
 20
-32.0755
 11
1.64073
 21
-32.5182
  0
LINE
  8
0
 10
1.64073
 20
-32.5182
 11
1.70999
 21
-33
  0
LINE
  8
0
 10
1.70999
 20
-33
 11
1.64073
 21
-33.4818
  0
LINE
  8
0
 10
1.64073
 20
-33.4818
 11
1.43854
 21
-33.9245
  0
LINE
  8
0
 10
1.43854
 20
-33.9245
 11
1.1198
 21
-34.2923
  0
LINE
  8
0
 10
1.1198
 20
-34.2923
 11
0.710358
 21
-34.5555
  0
LINE
  8
0
 10
0.710358
 20
-34.5555
 11
0.243347
 21
-34.6926
  0
LINE
  8
0
 10
0.243347
 20
-34.6926
 11
-0.243347
 21
-34.6926
  0
LINE
  8
0
 10
-0.243347
 20
-44.6926
 11
-0.710358
 21
-44.5555
  0
LINE
  8
0
 10
-0.710358
 20
-44.5555
 11
-1.1198
 21
-44.2923
  0
LINE
  8
0
 10
-1.1198
 20
-44.2923
 11
-1.43854
 21
-43.9245
  0
LINE
  8
0
 10
-1.43854
 20
-43.9245
 11
-1.64073
 21
-43.4818
  0
LINE
  8
0
 10
-1.64073
 20
-43.4818
 11
-1.70999
 21
-43
  0
LINE
  8
0
 10
-1.70999
 20
-43
 11
-1.64073
 21
-42.5182
  0
LINE
  8
0
 10
-1.64073
 20
-42.5182
 11
-1.43854
 21
-42.0755
  0
LINE
  8
0
 10
-1.43854
 20
-42.0755
 11
-1.1198
 21
-41.7077
  0
LINE
  8
0
 10
-1.1198
 20
-41.7077
 11
-0.710358
 21
-41.4445
  0
LINE
  8
0
 10
-0.710358
 20
-41.4445
 11
-0.243347
 21
-41.3074
  0
LINE
  8
0
 10
-0.243347
 20
-41.3074
 11
0.243347
 21
-41.3074
  0
LINE
  8
0
 10
0.243347
 20
-41.3074
 11
0.710358
 21
-41.4445
  0
LINE
  8
0
 10
0.710358
 20
-41.4445
 11
1.1198
 21
-41.7077
  0
LINE
  8
0
 10
1.1198
 20
-41.7077
 11
1.43854
 21
-42.0755
  0
LINE
  8
0
 10
1.43854
 20
-42.0755
 11
1.64073
 21
-42.5182
  0
LINE
  8
0
 10
1.64073
 20
-42.5182
 11
1.70999
 21
-43
  0
LINE
  8
0
 10
1.70999
 20
-43
 11
1.64073
 21
-43.4818
  0
LINE
  8
0
 10
1.64073
 20
-43.4818
 11
1.43854
 21
-43.9245
  0
LINE
  8
0
 10
1.43854
 20
-43.9245
 11
1.1198
 21
-44.2923
  0
LINE
  8
0
 10
1.1198
 20
-44.2923
 11
0.710358
 21
-44.5555
  0
LINE
  8
0
 10
0.710358
 20
-44.5555
 11
0.243347
 21
-44.6926
  0
LINE
  8
0
 10
0.243347
 20
-44.6926
 11
-0.243347
 21
-44.6926
  0
ENDSEC
  0
SECTION
  2
OBJECTS
  0
DICTIONARY
  0
ENDSEC
  0
EOF
