  0
SECTION
  2
BLOCKS
  0
ENDSEC
  0
SECTION
  2
ENTITIES
  0
LINE
  8
0
 10
52
 20
-8.81117
 11
52
 21
8.81117
  0
LINE
  8
0
 10
52
 20
8.81117
 11
8.81117
 21
52
  0
LINE
  8
0
 10
8.81117
 20
52
 11
-8.81117
 21
52
  0
LINE
  8
0
 10
-8.81117
 20
52
 11
-52
 21
8.81117
  0
LINE
  8
0
 10
-52
 20
8.81117
 11
-52
 21
-8.81117
  0
LINE
  8
0
 10
-52
 20
-8.81117
 11
-8.81117
 21
-52
  0
LINE
  8
0
 10
-8.81117
 20
-52
 11
8.81117
 21
-52
  0
LINE
  8
0
 10
8.81117
 20
-52
 11
52
 21
-8.81117
  0
LINE
  8
0
 10
-0.799988
 20
41.6143
 11
-1.59999
 21
43
  0
LINE
  8
0
 10
-1.59999
 20
43
 11
-0.799988
 21
44.3856
  0
LINE
  8
0
 10
-0.799988
 20
44.3856
 11
0.799988
 21
44.3856
  0
LINE
  8
0
 10
0.799988
 20
44.3856
 11
1.59999
 21
43
  0
LINE
  8
0
 10
1.59999
 20
43
 11
0.799988
 21
41.6143
  0
LINE
  8
0
 10
0.799988
 20
41.6143
 11
-0.799988
 21
41.6143
  0
LINE
  8
0
 10
-0.799988
 20
31.6143
 11
-1.59999
 21
33
  0
LINE
  8
0
 10
-1.59999
 20
33
 11
-0.799988
 21
34.3856
  0
LINE
  8
0
 10
-0.799988
 20
34.3856
 11
0.799988
 21
34.3856
  0
LINE
  8
0
 10
0.799988
 20
34.3856
 11
1.59999
 21
33
  0
LINE
  8
0
 10
1.59999
 20
33
 11
0.799988
 21
31.6143
  0
LINE
  8
0
 10
0.799988
 20
31.6143
 11
-0.799988
 21
31.6143
  0
LINE
  8
0
 10
34.3856
 20
-0.799988
 11
33
 21
-1.59999
  0
LINE
  8
0
 10
33
 20
-1.59999
 11
31.6143
 21
-0.799988
  0
LINE
  8
0
 10
31.6143
 20
-0.799988
 11
31.6143
 21
0.799988
  0
LINE
  8
0
 10
31.6143
 20
0.799988
 11
33
 21
1.59999
  0
LINE
  8
0
 10
33
 20
1.59999
 11
34.3856
 21
0.799988
  0
LINE
  8
0
 10
34.3856
 20
0.799988
 11
34.3856
 21
-0.799988
  0
LINE
  8
0
 10
-34.3856
 20
-0.799988
 11
-34.3856
 21
0.799988
  0
LINE
  8
0
 10
-34.3856
 20
0.799988
 11
-33
 21
1.59999
  0
LINE
  8
0
 10
-33
 20
1.59999
 11
-31.6143
 21
0.799988
  0
LINE
  8
0
 10
-31.6143
 20
0.799988
 11
-31.6143
 21
-0.799988
  0
LINE
  8
0
 10
-31.6143
 20
-0.799988
 11
-33
 21
-1.59999
  0
LINE
  8
0
 10
-33
 20
-1.59999
 11
-34.3856
 21
-0.799988
  0
LINE
  8
0
 10
-44.3856
 20
-0.799988
 11
-44.3856
 21
0.799988
  0
LINE
  8
0
 10
-44.3856
 20
0.799988
 11
-43
 21
1.59999
  0
LINE
  8
0
 10
-43
 20
1.59999
 11
-41.6143
 21
0.799988
  0
LINE
  8
0
 10
-41.6143
 20
0.799988
 11
-41.6143
 21
-0.799988
  0
LINE
  8
0
 10
-41.6143
 20
-0.799988
 11
-43
 21
-1.59999
  0
LINE
  8
0
 10
-43
 20
-1.59999
 11
-44.3856
 21
-0.799988
  0
LINE
  8
0
 10
41.6143
 20
-0.799988
 11
41.6143
 21
0.799988
  0
LINE
  8
0
 10
41.6143
 20
0.799988
 11
43
 21
1.59999
  0
LINE
  8
0
 10
43
 20
1.59999
 11
44.3856
 21
0.799988
  0
LINE
  8
0
 10
44.3856
 20
0.799988
 11
44.3856
 21
-0.799988
  0
LINE
  8
0
 10
44.3856
 20
-0.799988
 11
43
 21
-1.59999
  0
LINE
  8
0
 10
43
 20
-1.59999
 11
41.6143
 21
-0.799988
  0
LINE
  8
0
 10
-0.799988
 20
-34.3856
 11
-1.59999
 21
-33
  0
LINE
  8
0
 10
-1.59999
 20
-33
 11
-0.799988
 21
-31.6143
  0
LINE
  8
0
 10
-0.799988
 20
-31.6143
 11
0.799988
 21
-31.6143
  0
LINE
  8
0
 10
0.799988
 20
-31.6143
 11
1.59999
 21
-33
  0
LINE
  8
0
 10
1.59999
 20
-33
 11
0.799988
 21
-34.3856
  0
LINE
  8
0
 10
0.799988
 20
-34.3856
 11
-0.799988
 21
-34.3856
  0
LINE
  8
0
 10
-0.799988
 20
-44.3856
 11
-1.59999
 21
-43
  0
LINE
  8
0
 10
-1.59999
 20
-43
 11
-0.799988
 21
-41.6143
  0
LINE
  8
0
 10
-0.799988
 20
-41.6143
 11
0.799988
 21
-41.6143
  0
LINE
  8
0
 10
0.799988
 20
-41.6143
 11
1.59999
 21
-43
  0
LINE
  8
0
 10
1.59999
 20
-43
 11
0.799988
 21
-44.3856
  0
LINE
  8
0
 10
0.799988
 20
-44.3856
 11
-0.799988
 21
-44.3856
  0
ENDSEC
  0
SECTION
  2
OBJECTS
  0
DICTIONARY
  0
ENDSEC
  0
EOF
