  0
SECTION
  2
BLOCKS
  0
ENDSEC
  0
SECTION
  2
ENTITIES
  0
LINE
  8
0
 10
49
 20
-8.98276
 11
49
 21
8.98276
  0
LINE
  8
0
 10
49
 20
8.98276
 11
8.98276
 21
49
  0
LINE
  8
0
 10
8.98276
 20
49
 11
-8.98276
 21
49
  0
LINE
  8
0
 10
-8.98276
 20
49
 11
-49
 21
8.98276
  0
LINE
  8
0
 10
-49
 20
8.98276
 11
-49
 21
-8.98276
  0
LINE
  8
0
 10
-49
 20
-8.98276
 11
-8.98276
 21
-49
  0
LINE
  8
0
 10
-8.98276
 20
-49
 11
8.98276
 21
-49
  0
LINE
  8
0
 10
8.98276
 20
-49
 11
49
 21
-8.98276
  0
LINE
  8
0
 10
-0.799988
 20
41.6143
 11
-1.59999
 21
43
  0
LINE
  8
0
 10
-1.59999
 20
43
 11
-0.799988
 21
44.3856
  0
LINE
  8
0
 10
-0.799988
 20
44.3856
 11
0.799988
 21
44.3856
  0
LINE
  8
0
 10
0.799988
 20
44.3856
 11
1.59999
 21
43
  0
LINE
  8
0
 10
1.59999
 20
43
 11
0.799988
 21
41.6143
  0
LINE
  8
0
 10
0.799988
 20
41.6143
 11
-0.799988
 21
41.6143
  0
LINE
  8
0
 10
-0.799988
 20
31.6143
 11
-1.59999
 21
33
  0
LINE
  8
0
 10
-1.59999
 20
33
 11
-0.799988
 21
34.3856
  0
LINE
  8
0
 10
-0.799988
 20
34.3856
 11
0.799988
 21
34.3856
  0
LINE
  8
0
 10
0.799988
 20
34.3856
 11
1.59999
 21
33
  0
LINE
  8
0
 10
1.59999
 20
33
 11
0.799988
 21
31.6143
  0
LINE
  8
0
 10
0.799988
 20
31.6143
 11
-0.799988
 21
31.6143
  0
LINE
  8
0
 10
-3.29048
 20
-24.9938
 11
-7.3205
 21
-27.3205
  0
LINE
  8
0
 10
-7.3205
 20
-27.3205
 11
-9.64723
 21
-23.2905
  0
LINE
  8
0
 10
-9.64723
 20
-23.2905
 11
-14.1421
 21
-24.4949
  0
LINE
  8
0
 10
-14.1421
 20
-24.4949
 11
-15.3465
 21
-20
  0
LINE
  8
0
 10
-15.3465
 20
-20
 11
-20
 21
-20
  0
LINE
  8
0
 10
-20
 20
-20
 11
-20
 21
-15.3465
  0
LINE
  8
0
 10
-20
 20
-15.3465
 11
-24.4949
 21
-14.1421
  0
LINE
  8
0
 10
-24.4949
 20
-14.1421
 11
-23.2905
 21
-9.64723
  0
LINE
  8
0
 10
-23.2905
 20
-9.64723
 11
-27.3205
 21
-7.3205
  0
LINE
  8
0
 10
-27.3205
 20
-7.3205
 11
-24.9938
 21
-3.29048
  0
LINE
  8
0
 10
-24.9938
 20
-3.29048
 11
-28.2843
 21
0
  0
LINE
  8
0
 10
-28.2843
 20
0
 11
-24.9938
 21
3.29048
  0
LINE
  8
0
 10
-24.9938
 20
3.29048
 11
-27.3205
 21
7.3205
  0
LINE
  8
0
 10
-27.3205
 20
7.3205
 11
-23.2905
 21
9.64723
  0
LINE
  8
0
 10
-23.2905
 20
9.64723
 11
-24.4949
 21
14.1421
  0
LINE
  8
0
 10
-24.4949
 20
14.1421
 11
-20
 21
15.3465
  0
LINE
  8
0
 10
-20
 20
15.3465
 11
-20
 21
20
  0
LINE
  8
0
 10
-20
 20
20
 11
-15.3465
 21
20
  0
LINE
  8
0
 10
-15.3465
 20
20
 11
-14.1421
 21
24.4949
  0
LINE
  8
0
 10
-14.1421
 20
24.4949
 11
-9.64723
 21
23.2905
  0
LINE
  8
0
 10
-9.64723
 20
23.2905
 11
-7.3205
 21
27.3205
  0
LINE
  8
0
 10
-7.3205
 20
27.3205
 11
-3.29048
 21
24.9938
  0
LINE
  8
0
 10
-3.29048
 20
24.9938
 11
0
 21
28.2843
  0
LINE
  8
0
 10
0
 20
28.2843
 11
3.29048
 21
24.9938
  0
LINE
  8
0
 10
3.29048
 20
24.9938
 11
7.3205
 21
27.3205
  0
LINE
  8
0
 10
7.3205
 20
27.3205
 11
9.64723
 21
23.2905
  0
LINE
  8
0
 10
9.64723
 20
23.2905
 11
14.1421
 21
24.4949
  0
LINE
  8
0
 10
14.1421
 20
24.4949
 11
15.3465
 21
20
  0
LINE
  8
0
 10
15.3465
 20
20
 11
20
 21
20
  0
LINE
  8
0
 10
20
 20
20
 11
20
 21
15.3465
  0
LINE
  8
0
 10
20
 20
15.3465
 11
24.4949
 21
14.1421
  0
LINE
  8
0
 10
24.4949
 20
14.1421
 11
23.2905
 21
9.64723
  0
LINE
  8
0
 10
23.2905
 20
9.64723
 11
27.3205
 21
7.3205
  0
LINE
  8
0
 10
27.3205
 20
7.3205
 11
24.9938
 21
3.29048
  0
LINE
  8
0
 10
24.9938
 20
3.29048
 11
28.2843
 21
0
  0
LINE
  8
0
 10
28.2843
 20
0
 11
24.9938
 21
-3.29048
  0
LINE
  8
0
 10
24.9938
 20
-3.29048
 11
27.3205
 21
-7.3205
  0
LINE
  8
0
 10
27.3205
 20
-7.3205
 11
23.2905
 21
-9.64723
  0
LINE
  8
0
 10
23.2905
 20
-9.64723
 11
24.4949
 21
-14.1421
  0
LINE
  8
0
 10
24.4949
 20
-14.1421
 11
20
 21
-15.3465
  0
LINE
  8
0
 10
20
 20
-15.3465
 11
20
 21
-20
  0
LINE
  8
0
 10
20
 20
-20
 11
15.3465
 21
-20
  0
LINE
  8
0
 10
15.3465
 20
-20
 11
14.1421
 21
-24.4949
  0
LINE
  8
0
 10
14.1421
 20
-24.4949
 11
9.64723
 21
-23.2905
  0
LINE
  8
0
 10
9.64723
 20
-23.2905
 11
7.3205
 21
-27.3205
  0
LINE
  8
0
 10
7.3205
 20
-27.3205
 11
3.29048
 21
-24.9938
  0
LINE
  8
0
 10
3.29048
 20
-24.9938
 11
0
 21
-28.2843
  0
LINE
  8
0
 10
0
 20
-28.2843
 11
-3.29048
 21
-24.9938
  0
LINE
  8
0
 10
41.6143
 20
-0.799988
 11
41.6143
 21
0.799988
  0
LINE
  8
0
 10
41.6143
 20
0.799988
 11
43
 21
1.59999
  0
LINE
  8
0
 10
43
 20
1.59999
 11
44.3856
 21
0.799988
  0
LINE
  8
0
 10
44.3856
 20
0.799988
 11
44.3856
 21
-0.799988
  0
LINE
  8
0
 10
44.3856
 20
-0.799988
 11
43
 21
-1.59999
  0
LINE
  8
0
 10
43
 20
-1.59999
 11
41.6143
 21
-0.799988
  0
LINE
  8
0
 10
-44.3856
 20
-0.799988
 11
-44.3856
 21
0.799988
  0
LINE
  8
0
 10
-44.3856
 20
0.799988
 11
-43
 21
1.59999
  0
LINE
  8
0
 10
-43
 20
1.59999
 11
-41.6143
 21
0.799988
  0
LINE
  8
0
 10
-41.6143
 20
0.799988
 11
-41.6143
 21
-0.799988
  0
LINE
  8
0
 10
-41.6143
 20
-0.799988
 11
-43
 21
-1.59999
  0
LINE
  8
0
 10
-43
 20
-1.59999
 11
-44.3856
 21
-0.799988
  0
LINE
  8
0
 10
-34.3856
 20
-0.799988
 11
-34.3856
 21
0.799988
  0
LINE
  8
0
 10
-34.3856
 20
0.799988
 11
-33
 21
1.59999
  0
LINE
  8
0
 10
-33
 20
1.59999
 11
-31.6143
 21
0.799988
  0
LINE
  8
0
 10
-31.6143
 20
0.799988
 11
-31.6143
 21
-0.799988
  0
LINE
  8
0
 10
-31.6143
 20
-0.799988
 11
-33
 21
-1.59999
  0
LINE
  8
0
 10
-33
 20
-1.59999
 11
-34.3856
 21
-0.799988
  0
LINE
  8
0
 10
31.6143
 20
-0.799988
 11
31.6143
 21
0.799988
  0
LINE
  8
0
 10
31.6143
 20
0.799988
 11
33
 21
1.59999
  0
LINE
  8
0
 10
33
 20
1.59999
 11
34.3856
 21
0.799988
  0
LINE
  8
0
 10
34.3856
 20
0.799988
 11
34.3856
 21
-0.799988
  0
LINE
  8
0
 10
34.3856
 20
-0.799988
 11
33
 21
-1.59999
  0
LINE
  8
0
 10
33
 20
-1.59999
 11
31.6143
 21
-0.799988
  0
LINE
  8
0
 10
-0.799988
 20
-34.3856
 11
-1.59999
 21
-33
  0
LINE
  8
0
 10
-1.59999
 20
-33
 11
-0.799988
 21
-31.6143
  0
LINE
  8
0
 10
-0.799988
 20
-31.6143
 11
0.799988
 21
-31.6143
  0
LINE
  8
0
 10
0.799988
 20
-31.6143
 11
1.59999
 21
-33
  0
LINE
  8
0
 10
1.59999
 20
-33
 11
0.799988
 21
-34.3856
  0
LINE
  8
0
 10
0.799988
 20
-34.3856
 11
-0.799988
 21
-34.3856
  0
LINE
  8
0
 10
-0.799988
 20
-44.3856
 11
-1.59999
 21
-43
  0
LINE
  8
0
 10
-1.59999
 20
-43
 11
-0.799988
 21
-41.6143
  0
LINE
  8
0
 10
-0.799988
 20
-41.6143
 11
0.799988
 21
-41.6143
  0
LINE
  8
0
 10
0.799988
 20
-41.6143
 11
1.59999
 21
-43
  0
LINE
  8
0
 10
1.59999
 20
-43
 11
0.799988
 21
-44.3856
  0
LINE
  8
0
 10
0.799988
 20
-44.3856
 11
-0.799988
 21
-44.3856
  0
ENDSEC
  0
SECTION
  2
OBJECTS
  0
DICTIONARY
  0
ENDSEC
  0
EOF
